<?xml version="1.0" encoding="UTF-8"?>
<svg width="281px" height="38px" viewBox="0 0 281 38" version="1.1" xmlns="http://www.w3.org/2000/svg" xmlns:xlink="http://www.w3.org/1999/xlink">
    <title>icon-bg-20230414</title>
    <g id="页面-1" stroke="none" stroke-width="1" fill="none" fill-rule="evenodd" fill-opacity="0.53">
        <g id="下载转化提升项目第三阶段-何丹-20230414-2-最终" transform="translate(-820.000000, -260.000000)" fill="#000000" stroke="#3575F5">
            <g id="icon-bg-20230414" transform="translate(820.000000, 260.000000)">
                <path d="M263.778919,0.5 C268.197197,0.5 272.197197,2.290861 275.092627,5.1862915 C277.988058,8.081722 279.778919,12.081722 279.778919,16.5 C279.778919,20.918278 277.988058,24.918278 275.092627,27.8137085 C272.197197,30.709139 268.197197,32.5 263.778919,32.5 L263.778919,32.5 L146.856602,32.5 L139,37.4103762 L131.143398,32.5 L16.5,32.5 C12.081722,32.5 8.081722,30.709139 5.1862915,27.8137085 C2.290861,24.918278 0.5,20.918278 0.5,16.5 C0.5,12.081722 2.290861,8.081722 5.1862915,5.1862915 C8.081722,2.290861 12.081722,0.5 16.5,0.5 L16.5,0.5 Z"></path>
            </g>
        </g>
    </g>
</svg>