<?xml version="1.0" encoding="UTF-8"?>
<svg width="40px" height="40px" viewBox="0 0 40 40" version="1.1" xmlns="http://www.w3.org/2000/svg" xmlns:xlink="http://www.w3.org/1999/xlink">
    <title>partitionmanager</title>
    <defs>
        <linearGradient x1="50%" y1="0%" x2="50%" y2="100%" id="linearGradient-1">
            <stop stop-color="#3D82FF" offset="0%"></stop>
            <stop stop-color="#1B46D1" offset="100%"></stop>
        </linearGradient>
        <linearGradient x1="50%" y1="0%" x2="50%" y2="100%" id="linearGradient-2">
            <stop stop-color="#FA9812" offset="0%"></stop>
            <stop stop-color="#FF6903" offset="100%"></stop>
        </linearGradient>
        <path d="M14.3482326,2.06239525e-05 C14.5026588,-0.00144105207 14.815472,0.0744158065 14.8163258,0.347717853 L14.8163258,0.347717853 L14.8161091,0.483028318 C14.8160341,0.479023325 14.8159568,0.474077295 14.815883,0.469188688 L14.8153638,6.69159213 C14.6934171,6.90792277 14.5778648,7.16203341 14.470942,7.45397943 L14.470942,7.45397943 L13.9023771,9.00640914 C13.693782,9.5759646 13.0404407,10.0347764 12.4417865,10.0347764 L12.4417865,10.0347764 L11.3216703,10.0347764 C9.21510954,10.0347764 8.66628135,10.9192023 9.86546741,12.0951724 L9.87648936,12.0954979 L9.87648936,12.0954979 L9.55318301,12.0952346 C9.44947398,12.0951492 9.34406374,12.0950613 9.23693781,12.0949711 L8.22608948,12.0940909 C7.85138749,12.0937545 7.45881122,12.0933914 7.0478914,12.0929993 L6.20145464,12.092176 C4.60430431,12.0905934 2.75632909,12.0886027 0.634395743,12.0860984 C0.545057668,12.085993 0.455233975,12.0858866 0.364922938,12.0857794 L0.337581554,12.0852881 C0.280638363,12.0829043 0.170786151,12.0687669 0.0674558725,11.9839426 C-0.056540462,11.8821534 0.0270786114,11.657665 0.0336479433,11.6229893 L0.0336479433,11.6229893 L0.0674558725,11.4507583 C1.31427269,5.31349782 6.78785546,0.586433476 13.5313384,0.0494609277 C13.7490999,0.0321209325 13.9681857,0.0191502921 14.1884961,0.0106426159 C14.2218399,0.00935498574 14.2803776,0.00324293551 14.3482326,2.06239525e-05 Z" id="path-3"></path>
        <filter x="-23.6%" y="-20.7%" width="147.2%" height="157.9%" filterUnits="objectBoundingBox" id="filter-4">
            <feOffset dx="0" dy="1" in="SourceAlpha" result="shadowOffsetOuter1"></feOffset>
            <feGaussianBlur stdDeviation="1" in="shadowOffsetOuter1" result="shadowBlurOuter1"></feGaussianBlur>
            <feColorMatrix values="0 0 0 0 0.0509803922   0 0 0 0 0.341176471   0 0 0 0 0.749019608  0 0 0 0.2 0" type="matrix" in="shadowBlurOuter1"></feColorMatrix>
        </filter>
        <filter x="-16.9%" y="-12.4%" width="133.7%" height="141.3%" filterUnits="objectBoundingBox" id="filter-5">
            <feOffset dx="0" dy="1" in="SourceAlpha" result="shadowOffsetInner1"></feOffset>
            <feComposite in="shadowOffsetInner1" in2="SourceAlpha" operator="arithmetic" k2="-1" k3="1" result="shadowInnerInner1"></feComposite>
            <feColorMatrix values="0 0 0 0 1   0 0 0 0 1   0 0 0 0 1  0 0 0 0.3 0" type="matrix" in="shadowInnerInner1"></feColorMatrix>
        </filter>
        <linearGradient x1="50%" y1="47.1022051%" x2="50%" y2="119.242257%" id="linearGradient-6">
            <stop stop-color="#FFFFFF" offset="0%"></stop>
            <stop stop-color="#C6E3FE" offset="100%"></stop>
        </linearGradient>
        <path d="M16.8512864,2.47658379 C17.0711162,2.48557502 17.2895838,2.49910426 17.5065687,2.51706641 C24.4214453,3.08948421 29.8305085,8.16383217 29.8305085,14.3390063 C29.8305085,20.8977649 23.7285825,26.2146893 16.2014754,26.2146893 C8.6743683,26.2146893 2.57244236,20.8977649 2.57244236,14.3390063 C2.57244236,14.2608226 2.57330943,14.1828154 2.57503565,14.1055189 C2.57739283,13.9999697 2.57177763,13.7817861 2.69395828,13.6527935 C2.84052658,13.4980536 2.92856822,13.4389156 3.24055067,13.4399161 L3.24055067,13.4399161 L3.45130879,13.439796 C3.45267096,13.4397149 3.45308061,13.4396283 3.45348885,13.4395418 L3.48280429,13.4389156 C5.05422139,13.4325792 6.58093066,13.4293874 7.99912906,13.4282222 L10.870905,13.4285308 C10.8716424,13.4285609 10.8709856,13.4285967 10.8690552,13.4286379 L10.7924726,13.4293762 C10.7822822,13.4294567 10.7713005,13.4295417 10.7596479,13.4296308 L10.6399186,13.4305383 C10.5961418,13.4308738 10.5495829,13.4312399 10.5034973,13.4316299 L10.4129214,13.4324397 C10.3102363,13.4334169 10.2219428,13.4344995 10.1893944,13.4356011 L10.1761121,13.436548 C10.17956,13.4379693 10.2946893,13.4393813 10.609391,13.4406007 L10.8497229,13.4413831 C10.8950275,13.4415081 10.943037,13.4416302 10.9938721,13.4417491 L11.3337537,13.4424233 L11.3337537,13.4424233 L11.5309328,13.4427283 C11.5561294,13.4427642 11.5812558,13.4427993 11.6063111,13.4428338 C11.9862359,13.7944198 12.1869907,14.4252114 12.0515265,14.912163 L12.0515265,14.912163 L10.6694924,19.8801459 C10.5230562,20.4065382 10.7604166,20.5724131 11.2009412,20.246002 L11.2009412,20.246002 L15.1728346,17.3029881 C15.605197,16.9826249 16.3275906,16.9765771 16.7681152,17.3029881 L16.7681152,17.3029881 L20.7400086,20.246002 C21.172371,20.5663653 21.4184709,20.4086137 21.2714574,19.8801459 L21.2714574,19.8801459 L19.8894232,14.912163 C19.7429871,14.3857706 19.9874487,13.6886992 20.4367331,13.3598461 L20.4367331,13.3598461 L24.1659953,10.6302176 C24.6113389,10.304249 24.5331359,10.0347764 23.9825219,10.0347764 L23.9825219,10.0347764 L19.4121786,10.0347764 C18.8663942,10.0347764 18.2607041,9.61292483 18.070119,9.09254453 L18.070119,9.09254453 L16.3155597,4.30183318 C16.2811546,4.20789231 16.2430541,4.13090883 16.2025905,4.0708089 L16.2014754,2.90352846 C16.2014754,2.8294354 16.1813603,2.65668089 16.301335,2.57769214 C16.41864,2.50046112 16.6436679,2.48115337 16.7681007,2.47711379 Z" id="path-7"></path>
        <filter x="-12.8%" y="-10.5%" width="125.7%" height="129.5%" filterUnits="objectBoundingBox" id="filter-8">
            <feOffset dx="0" dy="1" in="SourceAlpha" result="shadowOffsetOuter1"></feOffset>
            <feGaussianBlur stdDeviation="1" in="shadowOffsetOuter1" result="shadowBlurOuter1"></feGaussianBlur>
            <feColorMatrix values="0 0 0 0 0.0509803922   0 0 0 0 0.341176471   0 0 0 0 0.749019608  0 0 0 0.25 0" type="matrix" in="shadowBlurOuter1"></feColorMatrix>
        </filter>
        <filter x="-9.2%" y="-6.3%" width="118.3%" height="121.1%" filterUnits="objectBoundingBox" id="filter-9">
            <feOffset dx="0" dy="1" in="SourceAlpha" result="shadowOffsetInner1"></feOffset>
            <feComposite in="shadowOffsetInner1" in2="SourceAlpha" operator="arithmetic" k2="-1" k3="1" result="shadowInnerInner1"></feComposite>
            <feColorMatrix values="0 0 0 0 1   0 0 0 0 1   0 0 0 0 1  0 0 0 1 0" type="matrix" in="shadowInnerInner1"></feColorMatrix>
        </filter>
    </defs>
    <g id="页面-1" stroke="none" stroke-width="1" fill="none" fill-rule="evenodd">
        <g id="header_icon" transform="translate(-50.000000, -50.000000)">
            <g id="编组" transform="translate(50.000000, 50.000000)">
                <path d="M7.5,0 C3.3578125,0 0,3.35796875 0,7.5 L0,32.5 C0,36.6421875 3.3578125,40 7.5,40 L32.5,40 C36.6420313,40 40,36.6421875 40,32.5 L40,7.5 C40,3.35796875 36.6420313,0 32.5,0 L7.5,0 Z" id="Fill-1备份-4" fill="url(#linearGradient-1)"></path>
                <g id="shap" transform="translate(4.519774, 6.327684)">
                    <g id="Oval-2">
                        <use fill="black" fill-opacity="1" filter="url(#filter-4)" xlink:href="#path-3"></use>
                        <use fill="url(#linearGradient-2)" fill-rule="evenodd" xlink:href="#path-3"></use>
                        <use fill="black" fill-opacity="1" filter="url(#filter-5)" xlink:href="#path-3"></use>
                    </g>
                    <g id="Oval-1">
                        <use fill="black" fill-opacity="1" filter="url(#filter-8)" xlink:href="#path-7"></use>
                        <use fill="url(#linearGradient-6)" fill-rule="evenodd" xlink:href="#path-7"></use>
                        <use fill="black" fill-opacity="1" filter="url(#filter-9)" xlink:href="#path-7"></use>
                    </g>
                </g>
            </g>
        </g>
    </g>
</svg>