<?xml version="1.0" encoding="UTF-8"?>
<svg width="39px" height="39px" viewBox="0 0 39 39" version="1.1" xmlns="http://www.w3.org/2000/svg" xmlns:xlink="http://www.w3.org/1999/xlink">
    <title>形状结合备份 3</title>
    <defs>
        <radialGradient cx="50%" cy="50%" fx="50%" fy="50%" r="50%" id="radialGradient-1">
            <stop stop-color="#FFFBD2" offset="0%"></stop>
            <stop stop-color="#FFC262" offset="100%"></stop>
        </radialGradient>
    </defs>
    <g id="页面-1" stroke="none" stroke-width="1" fill="none" fill-rule="evenodd" opacity="0.8">
        <g id="04" transform="translate(-39, -78)" fill="url(#radialGradient-1)">
            <path d="M58.5,104 L59.9234436,115.387548 C60.0217118,116.173695 59.4640766,116.890654 58.6779304,116.988922 C58.6189073,116.9963 58.5594825,117 58.5,117 C57.7077359,117 57.0654789,116.357743 57.0654789,115.565479 C57.0654789,115.505996 57.0691786,115.446572 57.0765564,115.387548 L58.5,104 Z M62.7962238,101.830914 L72.4345639,108.060268 C72.4845207,108.092555 72.5324208,108.127919 72.577987,108.166153 C73.1848966,108.675411 73.2640591,109.580243 72.7548016,110.187153 C72.716567,110.232719 72.6755353,110.275863 72.6319442,110.316335 C72.0513413,110.855392 71.1436774,110.821713 70.6046201,110.24111 L62.7962238,101.830914 Z M53.9253877,101.445119 L46.2649587,109.99031 C46.2252538,110.034601 46.1828324,110.076379 46.1379405,110.115403 C45.5400111,110.635175 44.6339352,110.571816 44.1141631,109.973887 C44.0751391,109.928995 44.0389451,109.881719 44.0057906,109.832334 C43.5641963,109.174552 43.7394509,108.283331 44.3972328,107.841737 L53.9253877,101.445119 Z M57.4498916,100.896476 L55.8987339,105.489781 C55.892375,105.508611 55.8849788,105.527075 55.8765794,105.545087 C55.7508477,105.81472 55.4303418,105.931374 55.1607093,105.805643 C55.1426966,105.797243 55.1251626,105.787853 55.1081876,105.777516 C54.8540891,105.622778 54.7735419,105.29135 54.9282805,105.037251 L57.4498916,100.896476 Z M59.9527589,100.953708 L62.0215161,104.666716 C62.0322388,104.685961 62.041754,104.705854 62.0500068,104.72628 C62.1599281,104.998345 62.0284849,105.308006 61.7564202,105.417927 C61.7359939,105.42618 61.715074,105.433154 61.6937817,105.438809 C61.410184,105.514136 61.119218,105.345299 61.043891,105.061702 L59.9527589,100.953708 Z M61.034075,98.5590466 L65.5592511,99.3193608 C65.9757821,99.3893458 66.2567131,99.7837449 66.1867281,100.200276 C66.1797483,100.241818 66.1693482,100.282712 66.155634,100.322541 C66.0181239,100.721899 65.5829063,100.934169 65.1835481,100.796659 C65.143719,100.782944 65.1050911,100.765963 65.0680586,100.745887 L61.034075,98.5590466 Z M54.7080285,98.5449633 L51.0694816,100.742042 C51.0506226,100.75343 51.0310735,100.763634 51.0109476,100.772594 C50.7428849,100.891944 50.4288255,100.771388 50.3094763,100.503325 C50.3005157,100.483199 50.2928155,100.462535 50.2864204,100.441453 C50.2012419,100.160657 50.3598213,99.8639761 50.6406174,99.7787976 L54.7080285,98.5449633 Z M40.4345211,96.0654789 C40.4940036,96.0654789 40.5534284,96.0691786 40.6124515,96.0765564 L52,97.5 L40.6124515,98.9234436 C39.8263054,99.0217118 39.1093458,98.4640766 39.0110775,97.6779304 C39.0036997,97.6189073 39,97.5594825 39,97.5 C39,96.7077359 39.642257,96.0654789 40.4345211,96.0654789 Z M76.5654789,96.0654789 C77.357743,96.0654789 78,96.7077359 78,97.5 C78,97.5594825 77.9963003,97.6189073 77.9889225,97.6779304 C77.8906542,98.4640766 77.1736946,99.0217118 76.3875485,98.9234436 L65,97.5 L76.3875485,96.0765564 C76.4465716,96.0691786 76.5059964,96.0654789 76.5654789,96.0654789 Z M50.9270887,94.192894 C50.9669178,94.2066082 51.0055457,94.2235897 51.0425783,94.2436652 L55.0765619,96.4305061 L50.5513858,95.6701919 C50.1348548,95.6002069 49.8539238,95.2058078 49.9239088,94.7892768 C49.9308886,94.747735 49.9412887,94.706841 49.9550029,94.6670119 C50.092513,94.2676538 50.5277306,94.0553839 50.9270887,94.192894 Z M65.3431344,93.5215852 C65.6045835,93.3883702 65.9245219,93.4923245 66.0577368,93.7537736 C66.0677385,93.7734029 66.0765096,93.7936354 66.0839993,93.8143537 C66.1837568,94.0903071 66.0409217,94.394881 65.7649683,94.4946385 L61.7677054,95.9396538 L65.2862796,93.5551588 C65.3045168,93.5427997 65.323505,93.5315868 65.3431344,93.5215852 Z M44.4756361,84.8239264 C45.0924274,84.3266831 45.9955309,84.4235958 46.4927742,85.0403871 L53.6954841,93.9747826 L44.5151603,87.0882663 C44.4675775,87.0525726 44.4222608,87.013954 44.3794727,86.972634 C43.8095656,86.4222811 43.7937138,85.5141309 44.3440667,84.9442238 C44.3853867,84.9014357 44.429328,84.861259 44.4756361,84.8239264 Z M54.6279536,88.8769206 C54.9115514,88.8015936 55.2025174,88.9704305 55.2778443,89.2540283 L56.3689765,93.3620217 L54.3002192,89.6490144 C54.2894966,89.6297695 54.2799813,89.6098762 54.2717285,89.5894498 C54.1618073,89.3173852 54.2932505,89.0077244 54.5653151,88.8978032 C54.5857415,88.8895504 54.6066614,88.8825761 54.6279536,88.8769206 Z M62.2921453,87.6753532 C62.310742,87.6823654 62.3289364,87.6904014 62.3466449,87.6994244 C62.6117252,87.8344895 62.7171232,88.1588714 62.5820581,88.4239516 C62.5730351,88.4416602 62.563039,88.4588559 62.5521157,88.4754597 L59.8875297,92.5257097 L61.5980465,87.9893372 C61.7030123,87.7109628 62.0137709,87.5703874 62.2921453,87.6753532 Z M71.1318349,83.3441 C71.7297643,82.824328 72.6358402,82.887687 73.1556123,83.4856163 C73.1946363,83.5305083 73.2308303,83.577784 73.2639848,83.6271696 C73.7055791,84.2849515 73.5303245,85.1761719 72.8725426,85.6177662 L63.3443877,92.0143837 L71.0048166,83.4691932 C71.0445216,83.4249024 71.086943,83.383124 71.1318349,83.3441 Z M58.5,78 C59.2922641,78 59.9345211,78.642257 59.9345211,79.4345211 C59.9345211,79.4940036 59.9308214,79.5534284 59.9234436,79.6124515 L58.5,91 L57.0765564,79.6124515 C56.9782882,78.8263054 57.5359234,78.1093458 58.3220696,78.0110775 C58.3810927,78.0036997 58.4405175,78 58.5,78 Z" id="形状结合备份-3"></path>
        </g>
    </g>
</svg>