<?xml version="1.0" encoding="UTF-8"?>
<svg width="22px" height="22px" viewBox="0 0 22 22" version="1.1" xmlns="http://www.w3.org/2000/svg" xmlns:xlink="http://www.w3.org/1999/xlink">
    <title>编组 41备份</title>
    <g id="阶段二初稿设计" stroke="none" stroke-width="1" fill="none" fill-rule="evenodd">
        <g id="epm-free-最后优化版本" transform="translate(-967.000000, -6089.000000)">
            <g id="编组-66" transform="translate(294.000000, 5388.000000)">
                <g id="编组-84" transform="translate(673.000000, 253.000000)">
                    <g id="编组-41备份" transform="translate(0.000000, 448.000000)">
                        <circle id="椭圆形" fill="#E3E3E3" cx="11" cy="11" r="11"></circle>
                        <path d="M12.0769231,11 L14.7692308,8.30769231 C15.0769231,8 15.0769231,7.53846154 14.7692308,7.23076923 C14.4615385,6.92307692 14,6.92307692 13.6923077,7.23076923 L11,9.92307692 L8.30769231,7.23076923 C8,6.92307692 7.53846154,6.92307692 7.23076923,7.23076923 C6.92307692,7.53846154 6.92307692,8 7.23076923,8.30769231 L9.92307692,11 L7.23076923,13.6923077 C6.92307692,14 6.92307692,14.4615385 7.23076923,14.7692308 C7.53846154,15.0769231 8,15.0769231 8.30769231,14.7692308 L11,12.0769231 L13.6923077,14.7692308 C14,15.0769231 14.4615385,15.0769231 14.7692308,14.7692308 C15.0769231,14.4615385 15.0769231,14 14.7692308,13.6923077 L12.0769231,11 Z" id="路径" fill="#19191A" fill-rule="nonzero"></path>
                    </g>
                </g>
            </g>
        </g>
    </g>
</svg>