<?xml version="1.0" encoding="utf-8"?>
<!-- Generator: Adobe Illustrator 23.0.1, SVG Export Plug-In . SVG Version: 6.00 Build 0)  -->
<svg version="1.1" id="图层_1" xmlns="http://www.w3.org/2000/svg" xmlns:xlink="http://www.w3.org/1999/xlink" x="0px" y="0px"
	 viewBox="0 0 17 16" style="enable-background:new 0 0 17 16;" xml:space="preserve">
<style type="text/css">
	.st0{fill:#FFFFFF;}
</style>
<title>icon-time</title>
<path class="st0" d="M14.7,2h-2V1c0-0.6-0.4-1-1-1s-1,0.4-1,1v1h-4V1c0-0.6-0.4-1-1-1s-1,0.4-1,1v1H2C0.9,2,0,2.9,0,4v10
	c0,1.1,0.9,2,2,2h12.7c1.1,0,2-0.9,2-2V4C16.7,2.9,15.8,2,14.7,2z M2,4h2.7c0,0.6,0.4,1,1,1s1-0.4,1-1h4c0,0.6,0.4,1,1,1s1-0.4,1-1
	h2v2.5L2,6.7L2,4L2,4z M2,14l0-5.3l12.7-0.2V14H2z"/>
</svg>
