<?xml version="1.0" encoding="UTF-8"?>
<svg width="166.487961px" height="32px" viewBox="0 0 166.487961 32" version="1.1" xmlns="http://www.w3.org/2000/svg" xmlns:xlink="http://www.w3.org/1999/xlink">
    <title>logo备份</title>
    <defs>
        <linearGradient x1="-7.9844384%" y1="51.3731241%" x2="196.60587%" y2="50.9375846%" id="linearGradient-1">
            <stop stop-color="#1966E0" offset="0%"></stop>
            <stop stop-color="#1D4BC2" offset="100%"></stop>
        </linearGradient>
        <linearGradient x1="-7.9844384%" y1="51.3731241%" x2="196.60587%" y2="50.9375846%" id="linearGradient-2">
            <stop stop-color="#000000" offset="0%"></stop>
            <stop stop-color="#000000" offset="100%"></stop>
        </linearGradient>
        <polygon id="path-3" points="0 0 24.4164678 0 24.4164678 28.1884083 0 28.1884083"></polygon>
        <linearGradient x1="43.0754415%" y1="90.4637%" x2="66.2393511%" y2="0%" id="linearGradient-5">
            <stop stop-color="#EA3B3B" offset="0%"></stop>
            <stop stop-color="#FFAA00" offset="100%"></stop>
        </linearGradient>
        <linearGradient x1="43.0754415%" y1="90.4637%" x2="66.2393511%" y2="0%" id="linearGradient-6">
            <stop stop-color="#000000" offset="0%"></stop>
            <stop stop-color="#000000" offset="100%"></stop>
        </linearGradient>
        <linearGradient x1="44.8005789%" y1="90.4637%" x2="63.0372784%" y2="0%" id="linearGradient-7">
            <stop stop-color="#002FA7" offset="0%"></stop>
            <stop stop-color="#2684FF" offset="100%"></stop>
        </linearGradient>
        <linearGradient x1="44.8005789%" y1="90.4637%" x2="63.0372784%" y2="0%" id="linearGradient-8">
            <stop stop-color="#000000" offset="0%"></stop>
            <stop stop-color="#000000" offset="100%"></stop>
        </linearGradient>
        <linearGradient x1="-68.5006539%" y1="8.68276721%" x2="79.2467845%" y2="70.9133723%" id="linearGradient-9">
            <stop stop-color="#040404" stop-opacity="0" offset="0%"></stop>
            <stop stop-color="#000000" offset="100%"></stop>
        </linearGradient>
        <linearGradient x1="-68.5006539%" y1="8.68276721%" x2="79.2467845%" y2="70.9133723%" id="linearGradient-10">
            <stop stop-color="#000000" stop-opacity="0" offset="0%"></stop>
            <stop stop-color="#000000" offset="100%"></stop>
        </linearGradient>
    </defs>
    <g id="页面-1" stroke="none" stroke-width="1" fill="none" fill-rule="evenodd">
        <g id="logo备份">
            <g id="编组-68">
                <g id="logo-new">
                    <path d="M57.92964,12.7178252 C59.2230726,12.7252037 60.411353,13.0374597 61.4922147,13.6547021 L61.5293895,13.6760953 C62.6060246,14.3000644 63.4649522,15.1789265 64.1044061,16.3105009 L64.1260823,16.3491231 C64.7510602,17.4705681 65.0670063,18.7219563 65.0742012,20.1007361 L65.0742012,20.1841149 L65.0737634,20.2927599 C65.0710284,20.7080937 65.0562124,21.0398145 65.0288109,21.2910847 L65.0271375,21.3042086 C64.9938012,21.5380273 64.7958445,21.7109989 64.5619595,21.7109989 L54.1671877,21.7110752 C54.0795106,21.7139336 54.0161186,21.7991068 54.0383194,21.8824695 L54.0482816,21.9194126 C54.2817706,22.7730147 54.7001819,23.4549169 55.3038121,23.9690128 L55.3270791,23.9886555 C56.0199661,24.5685797 56.9082099,24.859451 57.9977695,24.8594519 L58.0377885,24.8593172 C58.8727968,24.8536425 59.5890022,24.6675885 60.1887116,24.3029594 L60.2152015,24.2866877 C60.7317776,23.9662082 61.0674221,23.5687277 61.2297175,23.0893178 L61.2345301,23.0759087 C61.3041783,22.8910375 61.4775728,22.7679876 61.6729621,22.7679876 L64.3769503,22.7682403 C64.6735731,22.7779408 64.8889358,23.0614762 64.8194954,23.3549369 L64.8096155,23.3960673 C64.4744334,24.7716994 63.7245936,25.8953851 62.564069,26.76168 L62.526187,26.7897637 C61.2590651,27.7224881 59.7288306,28.1884378 57.9403977,28.1884378 L57.8932008,28.1884378 C56.4945636,28.1807907 55.2177933,27.841732 54.0652265,27.1709286 L54.026489,27.1482308 C52.8795494,26.4717184 51.9734853,25.5402283 51.3100873,24.3556081 L51.2878643,24.3156364 C50.6324862,23.1287601 50.3047553,21.816195 50.3047553,20.3801378 L50.3047553,20.3330554 C50.3123244,18.937668 50.6478449,17.6583313 51.3113189,16.4977583 L51.3340169,16.4583192 C52.0026545,15.3040756 52.9115389,14.3932308 54.0586415,13.7277659 C55.2189803,13.0545854 56.494917,12.7178252 57.8834763,12.7178252 L57.92964,12.7178252 Z M57.7332647,16.0615672 L57.6596577,16.0615672 C56.7424794,16.0677523 55.9703714,16.3042064 55.338889,16.7694628 L55.3123197,16.789222 C54.7620039,17.2025688 54.3671136,17.7584285 54.1258931,18.4609362 C54.112673,18.4994678 54.1426827,18.5416771 54.1846972,18.5416771 L61.0660321,18.5416288 C61.1047555,18.5401483 61.13296,18.5025399 61.1239396,18.4668836 L61.1158445,18.4353916 C60.9424811,17.773942 60.5862081,17.2313124 60.0441086,16.8032583 L60.0203276,16.7846519 C59.4070594,16.3092905 58.6465517,16.0678398 57.7332647,16.0615672 L57.7332647,16.0615672 Z M43.3681388,12.7178252 C41.6841168,12.7178252 40.3269063,13.1511187 39.3035741,14.0207745 C38.2852163,14.8863188 37.7677535,15.9850956 37.7575575,17.3052071 L37.757405,17.3444331 C37.7574038,18.1058952 37.9122243,18.7622984 38.2235273,19.3114996 L38.2396872,19.3396657 C38.5559149,19.8840611 38.9657343,20.2977675 39.4684299,20.5786436 L39.4962417,20.5939933 C39.9808646,20.8581583 40.5142146,21.0728137 41.0967221,21.2384023 L41.1545398,21.2546313 C41.7183685,21.4109071 42.2796387,21.5411685 42.8389604,21.6455848 L42.9433557,21.6647771 C43.5066464,21.7666382 44.0222095,21.8792947 44.4905793,22.0028502 L44.5468511,22.0178076 C45.0012066,22.1394433 45.3694993,22.3209419 45.6530879,22.5610557 L45.6738159,22.5788365 C45.9374173,22.8077812 46.0695195,23.0957228 46.0743378,23.4536084 L46.0744781,23.4750858 C46.0744743,23.9234561 45.8835557,24.2791697 45.4905524,24.5563405 L45.4716261,24.5695229 C45.0593839,24.8532125 44.4854325,24.9999988 43.7479743,25.0045059 L43.7123562,25.0046137 C42.9432968,25.0046129 42.2998224,24.823723 41.7782543,24.4636345 L41.7532558,24.4461758 C41.3151348,24.1368297 41.0476739,23.7535441 40.9446293,23.2916834 L40.9393813,23.2674341 C40.8942556,23.0516704 40.7131329,22.8921662 40.4955359,22.884435 L40.4819733,22.8841685 L37.936444,22.8841426 C37.6555373,22.8841426 37.4364464,23.1326567 37.4688707,23.4143822 L37.4705,23.4269661 C37.6783847,24.8406103 38.3176642,25.9693386 39.3849971,26.8070232 L39.4169072,26.8318807 C40.5761781,27.7281736 42.0539924,28.1794108 43.8454816,28.1884379 L43.8992327,28.1884379 C45.509885,28.1884379 46.8601532,27.7494287 47.9437702,26.8702994 L47.9760731,26.8438953 C49.0619504,25.9496973 49.6141696,24.8263167 49.6250613,23.4855482 L49.6252242,23.4457096 C49.6252242,22.7105943 49.5058179,22.0662918 49.2657105,21.5129076 L49.2517075,21.4810496 C49.0057471,20.9288328 48.6803603,20.4979893 48.2748824,20.1904531 L48.250629,20.1722794 C47.859387,19.882998 47.4193446,19.6342993 46.9298783,19.4254615 L46.879704,19.404267 C46.3866682,19.1982347 45.8805802,19.0501622 45.3611599,18.9600128 L45.3060667,18.9506778 C44.8208821,18.8703098 44.3492411,18.78204 43.8905864,18.6857473 L43.7757211,18.6614063 L43.6626271,18.6370905 C43.2325432,18.5440087 42.8420843,18.4524165 42.4921597,18.3625786 L42.4467833,18.3508799 C42.0901015,18.258517 41.8051355,18.1103181 41.5895471,17.9074227 L41.5719168,17.8905663 C41.3709156,17.6954419 41.2694204,17.4554284 41.2650898,17.1614106 L41.2649411,17.1404933 C41.2649457,16.7520172 41.4352892,16.4478294 41.7886606,16.2131976 L41.8066804,16.2013932 C42.1816149,15.9589218 42.6711142,15.8335844 43.2770458,15.8291293 L43.3112118,15.8290053 C43.9950168,15.8290064 44.5581848,15.9818711 45.0041857,16.2851729 L45.0270404,16.3009145 C45.3941971,16.5570338 45.6295657,16.8655519 45.738303,17.228729 L45.7447468,17.2508196 C45.8015277,17.4504206 45.9751823,17.5929595 46.1800015,17.6006056 L46.1942127,17.6008991 L48.8911228,17.6009276 C49.1776484,17.6009276 49.3987503,17.3428408 49.3571289,17.0566318 L49.3551214,17.0440812 C49.1264737,15.7594739 48.4985778,14.7355015 47.4755039,13.9779173 L47.444954,13.9554613 C46.3251701,13.138227 44.9804831,12.726078 43.4154679,12.7178252 L43.3681388,12.7178252 Z M90.6358676,7.58921644 C88.68288,7.58921644 87.0618613,8.1267326 85.7831722,9.2025745 C84.5059228,10.2771311 83.8558787,11.6565163 83.8430602,13.320343 L83.8428677,13.369997 C83.842867,14.1514583 83.9654042,14.8519273 84.2115235,15.4709941 L84.2262214,15.5075015 C84.4784174,16.1261333 84.8176364,16.6346086 85.2441074,17.031205 L85.2703471,17.0553618 C85.683429,17.4316592 86.1562705,17.7622553 86.6890814,18.0477212 L86.7386054,18.0740329 C87.2693392,18.3536297 87.8254229,18.5807621 88.4070735,18.7556351 L88.4689224,18.7740037 C88.872905,18.892502 89.277093,19.0067491 89.682007,19.116914 L89.8838458,19.1714739 L90.2372376,19.2653815 C90.7866778,19.409538 91.31198,19.5575693 91.8135798,19.7095756 L91.9074895,19.7381652 C92.4077511,19.891173 92.8496723,20.0661727 93.2328886,20.2627454 L93.2727144,20.2833607 C93.6321772,20.4710904 93.9178449,20.7128629 94.1321556,21.0095644 L94.1495064,21.0339198 C94.3525687,21.3228787 94.4563583,21.6610404 94.4608355,22.0548886 L94.4609889,22.0825242 C94.4609863,22.7992784 94.1651979,23.375366 93.5588142,23.8331207 L93.5376429,23.8489623 C92.9055497,24.317876 92.0824097,24.5569192 91.062458,24.5625328 L91.0251754,24.5626345 C89.9365324,24.5626339 89.0554212,24.2674406 88.3712146,23.6779771 L88.3484919,23.6582317 C87.8225877,23.1974327 87.5034308,22.6324893 87.386125,21.9548089 L87.380927,21.9239113 C87.3657811,21.8311726 87.3528247,21.6684606 87.342869,21.4397273 L87.3408991,21.3926357 C87.3338512,21.2112603 87.1906107,21.065514 87.011759,21.0569223 L86.9990625,21.0565724 L83.9393597,21.056526 C83.7545038,21.056526 83.602569,21.2036527 83.5937886,21.390088 L83.5933926,21.4029178 L83.5933926,21.4134653 L83.5933926,21.419476 L83.5990007,21.5646909 C83.6131344,21.9114772 83.6314307,22.1739308 83.6542645,22.3543708 L83.6599047,22.3966161 C83.8713045,23.8958277 84.5441753,25.1724896 85.6732301,26.2174742 L85.7071152,26.2486405 C87.0982068,27.5201613 88.8539482,28.1626757 90.9618765,28.1755362 L91.0251337,28.1755362 C92.355259,28.1755362 93.5607816,27.924717 94.6397301,27.4224788 L94.6829836,27.4021771 C95.7666943,26.8893081 96.62172,26.1751628 97.2439898,25.2616697 L97.2669064,25.2277797 C97.8867928,24.3041629 98.2010104,23.2669035 98.2084273,22.1223743 L98.2084273,22.0820996 C98.2084273,21.2578731 98.0863774,20.5208393 97.8412902,19.8714038 L97.8269261,19.8338104 C97.5754862,19.1841667 97.2349745,18.6488193 96.8049782,18.2294051 L96.7790338,18.2043466 C96.3620255,17.8056098 95.8868924,17.4566463 95.3535719,17.1569678 L95.3040235,17.1293618 C94.7716793,16.8353498 94.2116428,16.598376 93.6238134,16.418267 L93.5634935,16.400015 C93.1165585,16.2664863 92.6711519,16.14204 92.2266656,16.0264838 L92.0789608,15.9884028 L91.7834587,15.9141583 C91.233584,15.7783104 90.708217,15.6387178 90.2067532,15.4952325 L90.1128249,15.4682304 C89.6104682,15.3230653 89.1643593,15.161926 88.7749738,14.9851591 L88.7331294,14.966003 C88.369988,14.7983967 88.0834312,14.5812044 87.8709723,14.3143745 L87.8537589,14.2924444 C87.6556051,14.0363804 87.5545377,13.731085 87.5501613,13.3681257 L87.5500099,13.3424333 C87.5500131,12.7247563 87.7993142,12.2347394 88.3120989,11.8492684 L88.3316604,11.834707 C88.8695851,11.4380438 89.5880247,11.2347645 90.4917066,11.2294216 L90.5288281,11.2293129 C91.4832689,11.2293136 92.2457707,11.4839989 92.8270574,11.9917874 L92.8477704,12.0100543 C93.1930943,12.3173871 93.4380011,12.674322 93.584765,13.0834568 L93.5949478,13.1123752 C93.6198042,13.1843526 93.6418876,13.2587644 93.6608559,13.3347027 L93.6703988,13.3741374 C93.6833476,13.4290776 93.6949067,13.485934 93.7048392,13.5437341 L93.7121952,13.5885826 C93.7184825,13.6289196 93.724158,13.6709546 93.7289921,13.7132814 L93.7336862,13.7570689 C93.7361106,13.7813945 93.7390607,13.8249589 93.7422271,13.8846674 L93.7443671,13.9268426 C93.7532868,14.1071331 93.8958809,14.2508512 94.0733641,14.2593995 L94.0859681,14.2597502 L97.2559468,14.2597976 C97.4408771,14.259719 97.5928152,14.1125166 97.6015243,13.9260463 L97.6019139,13.9070746 L97.6000826,13.7883012 C97.5991435,13.7386863 97.5981075,13.6988715 97.5969637,13.6683435 L97.5962653,13.6511671 C97.5918055,13.55226 97.5853995,13.4546273 97.5770197,13.3577852 L97.5704359,13.2860602 C97.5609026,13.1879394 97.5494989,13.0916467 97.5361258,12.9962619 L97.5258242,12.925552 C97.4556411,12.4618245 97.3384169,12.0157853 97.1740102,11.5867052 L97.1543184,11.5359725 C96.8599017,10.7869994 96.4366677,10.1199067 95.8854963,9.53570803 L95.8533809,9.5019147 C95.2907448,8.91424279 94.5675502,8.45145155 93.6855846,8.11269636 L93.6420102,8.09611022 C92.76044,7.76358454 91.7768601,7.59496675 90.6919285,7.58921644 L90.6358676,7.58921644 Z M69.8593221,7.86098943 L66.776964,7.86098943 C66.5921344,7.86098943 66.4401392,8.00812994 66.4313524,8.19458512 L66.4309558,8.20742098 L66.4309558,20.192637 C66.4309558,22.4523547 67.1539861,24.3398221 68.5966294,25.8395417 L68.640076,25.8843655 C70.0983556,27.3773941 71.9406764,28.133247 74.1517082,28.1481597 L74.2180528,28.148384 C76.4368675,28.148384 78.2867124,27.4075404 79.7524052,25.9297752 L79.7961991,25.8852823 C81.2537655,24.3929843 81.9914411,22.5131465 82.0059952,20.2607853 L82.0062154,20.1931879 L82.0062154,8.21143578 C82.0062154,8.02418044 81.8609638,7.87028438 81.676877,7.86139054 L81.66421,7.86098943 L78.5912946,7.86098943 C78.4064317,7.86098943 78.2544654,8.00812347 78.2456825,8.19458915 L78.2453333,8.20742303 L78.2452858,20.192637 C78.2452858,21.3965538 77.8694158,22.3977521 77.1143683,23.2106678 L77.090899,23.2357471 C76.331253,24.0415941 75.3908052,24.4457227 74.2533315,24.4537767 L74.2180252,24.4539004 C73.0856711,24.4538994 72.1456329,24.0598306 71.3819655,23.2658358 L71.3583569,23.2411046 C70.5964527,22.4371114 70.2130894,21.4379334 70.2054471,20.2295337 L70.2053296,20.1920978 L70.2053303,8.21143578 C70.2053303,8.02417582 70.0600351,7.87028406 69.8759508,7.86139054 L69.8593221,7.86098943 Z M28.1654425,12.7119229 C29.1210615,12.7159563 29.9013727,12.8456628 30.7761945,13.1656863 L30.8336366,13.1869121 L30.8461128,13.1939423 C30.8420017,13.1917089 30.862578,13.19942 30.8994048,13.2140058 L30.9711,13.2428188 L31.0218564,13.2635972 C31.0694885,13.2832236 31.1232501,13.3057245 31.1785163,13.3294166 L31.2243561,13.349198 L31.2806985,13.3739053 C31.3367649,13.3987322 31.3914695,13.4237238 31.440012,13.4471332 C31.7808433,13.6114981 32.1388069,13.8205075 32.518499,14.0875472 L32.531058,14.0964218 L32.5310809,13.4952694 L32.5313179,13.4822007 C32.5396782,13.2272714 32.746819,13.0244658 32.9994934,13.0244658 L35.6877193,13.0244887 L35.7006352,13.0247275 C35.9525926,13.0331573 36.1532839,13.2423919 36.1532839,13.4980659 L36.1530244,27.3608566 C36.1446706,27.61576 35.9376373,27.8185555 35.6849734,27.8185555 L32.9967476,27.8185327 L32.9838317,27.8182938 C32.7318769,27.8098645 32.531058,27.6006387 32.531058,27.3449977 L32.531058,26.701318 C32.481122,26.7364192 32.4349811,26.7682549 32.3869431,26.8009254 L32.250238,26.8929859 L32.2223528,26.9107036 L32.1444747,26.9595657 C31.9689178,27.0688824 31.8336377,27.1470118 31.6791434,27.229151 L31.6458776,27.246744 C31.4093795,27.371126 31.1727559,27.4771995 30.7880066,27.6250842 L30.7435506,27.6420096 C29.7842133,28.0038065 28.9902708,28.1073611 27.6345319,28.1073611 L27.5919714,28.1073611 C26.3282669,28.09961 25.1631093,27.7561039 24.0992576,27.0773597 L24.0623351,27.0536452 C23.0063821,26.3709113 22.1694733,25.442256 21.5529105,24.2697957 L21.5312793,24.2283777 C20.922717,23.0550203 20.6183205,21.7779946 20.6183205,20.399454 L20.6183205,20.3507894 C20.6256863,18.974943 20.937348,17.7027596 21.5534826,16.5360074 L21.5750735,16.4953895 C22.1966142,15.3338075 23.0387697,14.4157256 24.1005711,13.7430292 L24.1367962,13.7202408 C25.1902139,13.0620319 26.3429261,12.7288153 27.5919203,12.7213272 L27.6312392,12.7211981 L27.6862242,12.7193438 C27.8186376,12.7150333 27.9449882,12.7125843 28.0670566,12.7119229 L28.1654425,12.7119229 Z M28.3712913,16.1925988 L28.3007197,16.1925988 C27.1493445,16.2007326 26.1784779,16.6090962 25.3793688,17.4206614 L25.3547424,17.4458503 C24.5631274,18.2614062 24.1690703,19.2429148 24.1690703,20.3993206 L24.1691931,20.4356484 C24.1771989,21.6079278 24.5793993,22.595541 25.3789389,23.4075447 C26.1865743,24.2276489 27.1690703,24.636038 28.3352683,24.636038 L28.3718249,24.6359145 C29.5515768,24.6278684 30.5340695,24.2239442 31.3282824,23.4220753 L31.3527489,23.3971864 C32.1391315,22.5911829 32.5310589,21.5953664 32.5310589,20.4004772 L32.5309368,20.363848 C32.5229769,19.1820924 32.1233464,18.197512 31.3295015,17.4005446 L31.3048537,17.3759804 C30.514436,16.5941455 29.5396241,16.2003956 28.3712913,16.1925988 Z" id="形状" fill="url(#linearGradient-2)" fill-rule="nonzero"></path>
                    <g id="编组-Clipped">
                        <mask id="mask-4" fill="white">
                            <use xlink:href="#path-3"></use>
                        </mask>
                        <g id="path-2"></g>
                        <g id="编组" mask="url(#mask-4)">
                            <g transform="translate(-7.6396, -8.5376)" id="路径">
                                <g transform="translate(18.5494, 18.5494) rotate(45) translate(-18.5494, -18.5494)translate(8.1742, 2.6918)">
                                    <path d="M13.2538631,0.208919352 C13.1385853,-0.0215075982 12.8305109,-0.0716350958 12.6478543,0.110392883 L2.45805778,10.2652579 C-0.819352595,13.5312573 -0.819352595,18.8455701 2.45805778,22.1117024 C2.6727359,22.3257748 2.89688708,22.5249551 3.12810968,22.710839 C3.19869062,21.8076133 3.55172871,20.5933844 3.68448492,20.1373172 C3.8073678,19.7152888 3.9533329,19.3161303 3.9533329,19.3161303 C4.08875757,18.9450272 4.27194778,18.5009269 4.53359091,17.9747876 C5.02899169,16.9786199 5.61872275,16.0671504 6.23180291,15.3422296 C6.57750275,14.9334977 7.36389973,14.0260171 8.21607447,13.1767748 L9.2690513,12.1272884 L15.7125879,5.70605785 C15.8274654,5.59157568 15.8561515,5.4165948 15.7837026,5.27153087 L13.2538631,0.208919352 Z" fill="url(#linearGradient-6)" fill-rule="nonzero"></path>
                                    <path d="M13.8693702,22.2053148 C13.9654351,22.040971 14.0815134,21.885004 14.2228086,21.744328 L14.5057995,21.4623109 L16.6940754,19.2815652 L20.6396607,15.3495572 C20.7546715,15.2349421 20.7832242,15.0599612 20.7107753,14.9150302 L18.1809358,9.85241871 C18.0657914,9.62185881 17.757717,9.57173131 17.574927,9.75389224 L9.8829484,17.4194018 C6.60553798,20.6855341 6.60553798,25.9998469 9.8829484,29.2659792 C11.9345988,31.3105695 14.7917256,32.0749808 17.4457823,31.5596114 C16.4423055,31.6060159 15.449636,31.2407634 14.5057995,30.3001746 C12.3019131,28.1038722 12.0901703,24.6449417 13.8693702,22.2053148 L13.8693702,22.2053148 Z" fill="url(#linearGradient-8)" fill-rule="nonzero"></path>
                                </g>
                            </g>
                        </g>
                    </g>
                </g>
                <g id="编组-2" transform="translate(104.6273, 19.2194)" fill="#000000" fill-rule="nonzero">
                    <g id="Since-2004" transform="translate(6.4189, 0)">
                        <path d="M2.58931469,7.04710947 C2.2166103,7.04710947 1.87169528,6.99817121 1.55456961,6.90029469 C1.23744395,6.80241817 0.94974232,6.65397211 0.691464718,6.45495652 C0.433187116,6.25594093 0.202698877,6.00961835 0,5.71598879 L0.725792754,4.88403837 C1.04618775,5.34079546 1.35350541,5.65726288 1.64774571,5.83344062 C1.94198602,6.00961835 2.29180505,6.09770722 2.6972028,6.09770722 C2.94567239,6.09770722 3.17125663,6.05855661 3.3739555,5.9802554 C3.57665438,5.90195418 3.73685188,5.79429001 3.854548,5.65726288 C3.97224412,5.52023575 4.03109219,5.36363332 4.03109219,5.18745558 C4.03109219,5.07000376 4.01147617,4.95907703 3.97224412,4.85467541 C3.93301208,4.75027379 3.87252935,4.65565982 3.79079594,4.5708335 C3.70906252,4.48600719 3.60444374,4.40770597 3.47693961,4.33592985 C3.34943548,4.26415374 3.20068066,4.200534 3.03067515,4.14507064 C2.86066964,4.08960728 2.66450943,4.04230029 2.44219454,4.00314969 C2.08910617,3.93137357 1.78178852,3.8367596 1.52024158,3.71930778 C1.25869464,3.60185595 1.03964908,3.45504117 0.863104896,3.27886343 C0.686560713,3.1026857 0.555787244,2.90203883 0.470784489,2.67692283 C0.385781734,2.45180684 0.343280356,2.19895916 0.343280356,1.9183798 C0.343280356,1.64432554 0.403763086,1.38984659 0.524728545,1.15494294 C0.645694004,0.920039292 0.812430177,0.716129874 1.02493706,0.543214688 C1.23744395,0.370299502 1.48754821,0.236534924 1.77524984,0.141920955 C2.06295148,0.0473069849 2.37353846,0 2.70701081,0 C3.06009918,0 3.38376351,0.0456757095 3.67800382,0.137027129 C3.97224412,0.228378548 4.23379106,0.363774401 4.46264463,0.543214688 C4.6914982,0.722654976 4.88111974,0.942877147 5.03150922,1.2038812 L4.28610045,1.9379551 C4.15532698,1.72262676 4.00820683,1.5415552 3.84473999,1.39474042 C3.68127316,1.24792564 3.50145964,1.13699891 3.30529943,1.06196025 C3.10913923,0.986921581 2.89990168,0.949402248 2.67758678,0.949402248 C2.42257852,0.949402248 2.20026362,0.988552856 2.01064209,1.06685407 C1.82102056,1.14515529 1.67226574,1.25445074 1.56437762,1.39474042 C1.45648951,1.5350301 1.40254546,1.6997889 1.40254546,1.88901684 C1.40254546,2.02604397 1.42870015,2.15165217 1.48100954,2.26584145 C1.53331893,2.38003072 1.61341768,2.48116979 1.72130579,2.56925866 C1.8291939,2.65734753 1.97467938,2.73564875 2.15776224,2.80416231 C2.3408451,2.87267587 2.55989066,2.93303306 2.81489892,2.98523387 C3.17452596,3.06353509 3.49492096,3.16304288 3.77608392,3.28375726 C4.05724688,3.40447164 4.29590846,3.54639259 4.49206866,3.70952012 C4.68822887,3.87264766 4.83698369,4.0553505 4.93833313,4.25762864 C5.03968257,4.45990678 5.09035729,4.67849768 5.09035729,4.91340132 C5.09035729,5.35058312 4.98900785,5.729039 4.78630897,6.04876896 C4.58361009,6.36849893 4.29590846,6.6148215 3.92320407,6.78773669 C3.55049969,6.96065188 3.10586989,7.04710947 2.58931469,7.04710947 Z" id="路径"></path>
                        <polygon id="路径" points="5.77696631 6.94923295 5.77696631 5.97046775 6.88527146 5.97046775 6.88527146 1.07664172 5.77696631 1.07664172 5.77696631 0.0978765204 9.05284172 0.0978765204 9.05284172 1.07664172 7.94453656 1.07664172 7.94453656 5.97046775 9.05284172 5.97046775 9.05284172 6.94923295"></polygon>
                        <path d="M10.2701623,6.94923295 L10.2701623,0.0978765204 L11.2215393,0.0978765204 L15.4193677,5.70620114 L15.2624395,5.79429001 C15.2362848,5.63116247 15.2133995,5.45335346 15.1937834,5.26086297 C15.1741674,5.06837248 15.1561861,4.86283179 15.1398394,4.64424089 C15.1234927,4.42565 15.1104154,4.1940089 15.1006074,3.9493176 C15.0907993,3.7046263 15.082626,3.44851607 15.0760873,3.18098691 C15.0695487,2.91345776 15.0662793,2.63614095 15.0662793,2.34903649 L15.0662793,0.0978765204 L16.1255444,0.0978765204 L16.1255444,6.94923295 L15.1545514,6.94923295 L11.0253791,1.54644902 L11.1332672,1.40942189 C11.1659606,1.80745308 11.19375,2.14512707 11.2166353,2.42244388 C11.2395207,2.69976069 11.2591367,2.93466434 11.2754834,3.12715483 C11.2918301,3.31964532 11.3032727,3.47624775 11.3098114,3.59696213 C11.3163501,3.7176765 11.3212541,3.8171843 11.3245234,3.89548551 C11.3277928,3.97378673 11.3294274,4.04230029 11.3294274,4.10102621 L11.3294274,6.94923295 L10.2701623,6.94923295 Z" id="路径"></path>
                        <path d="M19.9648892,7.04710947 C19.487566,7.04710947 19.0494749,6.96228315 18.6506158,6.79263052 C18.2517568,6.62297788 17.9052071,6.37991786 17.6109668,6.06345044 C17.3167264,5.74698302 17.0895075,5.37342097 16.92931,4.94276428 C16.7691125,4.51210759 16.6890138,4.03903774 16.6890138,3.52355474 C16.6890138,3.03417213 16.7756512,2.57904631 16.9489261,2.15817728 C17.1222009,1.73730824 17.3624972,1.36700874 17.6698148,1.04727877 C17.9771325,0.727548802 18.3334902,0.47959495 18.7388879,0.303417213 C19.1442857,0.127239477 19.5823768,0.0391506082 20.0531613,0.0391506082 C20.3866336,0.0391506082 20.7119326,0.0897201437 21.0290583,0.190859215 C21.346184,0.291998286 21.6338856,0.432287965 21.8921632,0.611728253 C22.1504408,0.79116854 22.361313,0.995077958 22.5247799,1.22345651 L21.8186031,1.95753041 C21.6289816,1.76830247 21.4377254,1.61006876 21.2448345,1.48282928 C21.0519437,1.35558981 20.8557835,1.25934456 20.6563539,1.19409355 C20.4569244,1.12884254 20.2558602,1.09621703 20.0531613,1.09621703 C19.7327663,1.09621703 19.433622,1.15657422 19.1557284,1.27728859 C18.8778347,1.39800297 18.6359038,1.56602433 18.4299356,1.78135267 C18.2239674,1.99668102 18.0621352,2.25279124 17.9444391,2.54968336 C17.826743,2.84657547 17.7678949,3.17119926 17.7678949,3.52355474 C17.7678949,3.89548551 17.8251083,4.23315951 17.9395351,4.53657672 C18.0539619,4.83999393 18.215794,5.09936671 18.4250316,5.31469506 C18.6342691,5.5300234 18.8843734,5.69478221 19.1753444,5.80897149 C19.4663153,5.92316076 19.788345,5.9802554 20.1414334,5.9802554 C20.3572096,5.9802554 20.5697165,5.95089244 20.778954,5.89216653 C20.9881916,5.83344062 21.1843518,5.7486143 21.3674347,5.63768758 C21.5505175,5.52676085 21.7172537,5.39625883 21.8676432,5.24618149 L22.3972757,6.10749487 C22.2468862,6.28367261 22.0425527,6.44353759 21.7842751,6.58708982 C21.5259975,6.73064205 21.2382959,6.84320005 20.9211702,6.92476382 C20.6040445,7.00632759 20.2852842,7.04710947 19.9648892,7.04710947 Z" id="路径"></path>
                        <path d="M23.7497504,6.94923295 L23.7497504,0.0978765204 L28.0750829,0.0978765204 L28.0750829,1.11579233 L24.8090155,1.11579233 L24.8090155,5.93131714 L28.0750829,5.93131714 L28.0750829,6.94923295 L23.7497504,6.94923295 Z M24.2303429,3.94442377 L24.2303429,2.92650796 L27.5356423,2.92650796 L27.5356423,3.94442377 L24.2303429,3.94442377 Z" id="形状"></path>
                        <path d="M34.0155805,6.94923295 L33.6919161,6.14664548 L35.7908303,3.78782134 C35.9019878,3.67036952 36.0180492,3.53497366 36.1390147,3.38163378 C36.2599801,3.2282939 36.3760416,3.07006019 36.487199,2.90693266 C36.5983565,2.74380512 36.6882632,2.58230886 36.7569193,2.42244388 C36.8255754,2.2625789 36.8599034,2.11087029 36.8599034,1.96731806 C36.8599034,1.75851482 36.8190367,1.5807058 36.7373033,1.43389102 C36.6555699,1.28707624 36.5378738,1.17451825 36.3842149,1.09621703 C36.2305561,1.01791581 36.0458386,0.978765204 35.8300623,0.978765204 C35.6404408,0.978765204 35.4540886,1.03422857 35.2710058,1.14515529 C35.0879229,1.25608201 34.9211867,1.41268444 34.7707972,1.61496259 C34.6204078,1.81724073 34.5027116,2.05214438 34.4177089,2.31967353 L33.603644,1.81071563 C33.7148015,1.43225975 33.8831723,1.10763596 34.1087566,0.83684425 C34.3343408,0.566052543 34.6056957,0.358880575 34.9228214,0.215328345 C35.2399471,0.071776115 35.5848621,0 35.9575665,0 C36.3433482,0 36.6866286,0.0799324917 36.9874076,0.239797475 C37.2881865,0.399662458 37.5235788,0.621515905 37.6935843,0.905357814 C37.8635898,1.18919972 37.9485925,1.51708607 37.9485925,1.88901684 C37.9485925,2.03909418 37.9322459,2.19243406 37.8995525,2.34903649 C37.8668591,2.50563892 37.8145497,2.66713518 37.7426243,2.83352527 C37.6706989,2.99991535 37.5791575,3.17283054 37.468,3.35227082 C37.3568426,3.53171111 37.2244345,3.71930778 37.0707756,3.91506082 C36.9171168,4.11081386 36.7422073,4.31635455 36.5460471,4.5316829 L34.9865735,6.2249467 L34.7904133,5.93131714 L38.1643688,5.93131714 L38.1643688,6.94923295 L34.0155805,6.94923295 Z" id="路径"></path>
                        <path d="M41.0337674,7.04710947 C40.5106735,7.04710947 40.0611397,6.90355724 39.685166,6.61645278 C39.3091923,6.32934832 39.019856,5.92316076 38.8171571,5.3978901 C38.6144582,4.87261944 38.5131088,4.24784099 38.5131088,3.52355474 C38.5131088,2.79926848 38.6144582,2.17449003 38.8171571,1.64921937 C39.019856,1.12394871 39.3091923,0.71776115 39.685166,0.43065669 C40.0611397,0.14355223 40.5106735,0 41.0337674,0 C41.5568613,0 42.0080297,0.14355223 42.3872728,0.43065669 C42.7665158,0.71776115 43.0574868,1.12394871 43.2601857,1.64921937 C43.4628846,2.17449003 43.564234,2.79926848 43.564234,3.52355474 C43.564234,4.24784099 43.4628846,4.87261944 43.2601857,5.3978901 C43.0574868,5.92316076 42.7665158,6.32934832 42.3872728,6.61645278 C42.0080297,6.90355724 41.5568613,7.04710947 41.0337674,7.04710947 Z M41.0337674,6.08791957 C41.5110905,6.08791957 41.8805256,5.86443485 42.1420725,5.41746541 C42.4036195,4.97049596 42.5343929,4.33919241 42.5343929,3.52355474 C42.5343929,2.70791706 42.4036195,2.07661351 42.1420725,1.62964406 C41.8805256,1.18267462 41.5110905,0.9591899 41.0337674,0.9591899 C40.5564442,0.9591899 40.1870092,1.18267462 39.9254622,1.62964406 C39.6639153,2.07661351 39.5331418,2.70791706 39.5331418,3.52355474 C39.5331418,4.33919241 39.6639153,4.97049596 39.9254622,5.41746541 C40.1870092,5.86443485 40.5564442,6.08791957 41.0337674,6.08791957 Z" id="形状"></path>
                        <path d="M46.8107337,7.04710947 C46.2876398,7.04710947 45.838106,6.90355724 45.4621323,6.61645278 C45.0861586,6.32934832 44.7968223,5.92316076 44.5941234,5.3978901 C44.3914245,4.87261944 44.2900751,4.24784099 44.2900751,3.52355474 C44.2900751,2.79926848 44.3914245,2.17449003 44.5941234,1.64921937 C44.7968223,1.12394871 45.0861586,0.71776115 45.4621323,0.43065669 C45.838106,0.14355223 46.2876398,0 46.8107337,0 C47.3338276,0 47.784996,0.14355223 48.1642391,0.43065669 C48.5434822,0.71776115 48.8344531,1.12394871 49.037152,1.64921937 C49.2398509,2.17449003 49.3412003,2.79926848 49.3412003,3.52355474 C49.3412003,4.24784099 49.2398509,4.87261944 49.037152,5.3978901 C48.8344531,5.92316076 48.5434822,6.32934832 48.1642391,6.61645278 C47.784996,6.90355724 47.3338276,7.04710947 46.8107337,7.04710947 Z M46.8107337,6.08791957 C47.2880569,6.08791957 47.6574919,5.86443485 47.9190388,5.41746541 C48.1805858,4.97049596 48.3113593,4.33919241 48.3113593,3.52355474 C48.3113593,2.70791706 48.1805858,2.07661351 47.9190388,1.62964406 C47.6574919,1.18267462 47.2880569,0.9591899 46.8107337,0.9591899 C46.3334105,0.9591899 45.9639755,1.18267462 45.7024285,1.62964406 C45.4408816,2.07661351 45.3101081,2.70791706 45.3101081,3.52355474 C45.3101081,4.33919241 45.4408816,4.97049596 45.7024285,5.41746541 C45.9639755,5.86443485 46.3334105,6.08791957 46.8107337,6.08791957 Z" id="形状"></path>
                        <polygon id="路径" points="53.2252207 6.94923295 53.2252207 1.4289972 53.4704209 1.48772311 51.2145786 4.23805333 51.1753465 4.12060151 55.441831 4.12060151 55.441831 5.08957906 50.5182099 5.08957906 50.0670414 4.20869038 53.4311889 0.0978765204 54.2452537 0.0978765204 54.2452537 6.94923295"></polygon>
                    </g>
                    <polygon id="路径-2" points="0 0 0 7.68775579 1.0151705 7.68775579 1.0151705 0"></polygon>
                </g>
            </g>
            <path d="M8.5177608,22.4391568 C7.63899495,23.3165921 6.20221471,23.3763841 5.30411037,22.5185241 C4.52870526,21.7777178 4.40053793,20.623562 4.9144073,19.7429307 C3.13580331,22.1862732 3.34759267,25.6506049 5.55057561,27.8501193 C6.49402531,28.7922736 7.48628794,29.1580825 8.48935331,29.1114742 C10.0744395,28.8031932 11.586973,28.037751 12.8120973,26.8143486 L16.6980499,22.9341464 C16.813147,22.8194899 16.8415545,22.6442425 16.7691353,22.4990908 L14.2403328,17.4287689 C14.1252357,17.1978578 13.817421,17.1476539 13.6347059,17.3300924 L8.5177608,22.4391568 Z" id="路径" fill="url(#linearGradient-10)" fill-rule="nonzero" transform="translate(10.2656, 23.1674) rotate(-315) translate(-10.2656, -23.1674)"></path>
        </g>
    </g>
</svg>